<svg xmlns="http://www.w3.org/2000/svg" width="256" height="256"><path fill-opacity=".016" d="M0 128.004v128.004l128.25-.254 128.25-.254.254-127.75L257.008 0H0v128.004m.485.496c0 70.4.119 99.053.265 63.672.146-35.38.146-92.98 0-128C.604 29.153.485 58.1.485 128.5" fill="#1976D2" fill-rule="evenodd"/><path fill-opacity=".127" d="M0 128v128h30.95l-.427-2.75c-3.301-21.277.348-45.134 9.201-60.156 4.721-8.01 14.911-18.595 22.776-23.659 3.3-2.124 6.172-3.975 6.382-4.114.209-.138-2.86-3.721-6.821-7.963-8.395-8.989-19.565-25.428-27.48-40.444C29.725 107.703 29 105.597 29 100.711c0-13.379 6.682-15.786 21-7.565 13.028 7.48 22.783 21.448 27.135 38.854 1.169 4.675 3.033 9.625 4.141 11l2.015 2.5-.737-2.5c-2.99-10.138-3.553-13.311-3.542-19.968.023-14.803 4.746-25.79 15.966-37.144 4.137-4.187 9.811-8.77 12.61-10.185l5.087-2.572-.459-5.544c-.436-5.248-.277-5.726 2.972-8.975 5.507-5.507 13.456-6.549 20.639-2.705 2.622 1.404 6.164 6.767 6.169 9.343.003 1.397.879 1.75 4.344 1.75 6.203 0 18.74 3.423 26.493 7.233 7.633 3.75 18.509 13.508 23.194 20.809 2.668 4.157 3.449 4.773 5.002 3.943 2.697-1.444 10.656-1.201 13.771.42 1.485.773 3.825 2.609 5.2 4.081 3.086 3.302 3.397 9.733.672 13.892-2.154 3.287-8.828 6.569-13.422 6.6-3.095.021-3.25.204-3.25 3.84 0 2.101-.718 6.263-1.595 9.25-5.453 18.563-20.933 33.521-40.905 39.525-3.3.992-6.184 1.936-6.409 2.098-.226.162 3.899 4.685 9.165 10.052 28.427 28.968 42.65 52.09 37.714 61.312-2.721 5.084-13.965 6.578-21.621 2.872-6.048-2.928-13.306-11.317-18.545-21.437l-4.487-8.667-.64 11.838c-.352 6.512-.935 13.981-1.296 16.598l-.655 4.759 50.887-.259 50.887-.259.254-127.75L257.008 0H0v128m.485.5c0 70.4.119 99.053.265 63.672.146-35.38.146-92.98 0-128C.604 29.153.485 58.1.485 128.5M197 25.989c0 10.752.049 10.987 2.25 10.912 1.238-.042 3.167.215 4.288.572 1.33.424 2.979-.092 4.75-1.485C213.296 32.049 210.977 22 205.059 22c-1.068 0-2.219.45-2.559 1-1.4 2.266-2.5.726-2.5-3.5 0-3.333-.389-4.5-1.5-4.5-1.242 0-1.5 1.888-1.5 10.989M49.669 18.045c-4.784 3.764-5.337 12.35-1.096 17.036 1.932 2.135 6.56 3.329 9.405 2.426C61.316 36.448 60.264 35 56.155 35c-5.066 0-7.428-2.596-7.428-8.164 0-5.383 3.958-9.349 8.436-8.453 2.09.418 2.837.179 2.837-.908 0-2.303-7.182-1.906-10.331.57m50.79-.978c-.92 1.489.147 2.298 2.061 1.564.884-.339 1.327-1.07.984-1.624-.81-1.311-2.215-1.284-3.045.06M154 26.393c0 8.316.3 10.508 1.5 10.969 1.209.464 1.5-.388 1.5-4.393V28h10v4.5c0 2.475.45 4.5 1 4.5.603 0 1-4.167 1-10.5s-.397-10.5-1-10.5c-.55 0-1 2.025-1 4.5V25h-10v-4.5c0-3.333-.389-4.5-1.5-4.5-1.237 0-1.5 1.821-1.5 10.393m-66-6c0 .766-.787 1.696-1.75 2.067-1.667.642-1.667.721 0 1.657 1.32.741 1.75 2.273 1.75 6.233 0 2.887.54 5.79 1.2 6.45 1.765 1.765 4.8 1.47 4.8-.467 0-.916-.296-1.37-.658-1.008C91.845 36.821 90 33.486 90 29.284c0-3.63.376-4.57 2-4.994 1.1-.288 2-.921 2-1.407 0-.485-.9-.883-2-.883-1.111 0-2-.667-2-1.5 0-.825-.45-1.5-1-1.5s-1 .627-1 1.393m-21 8.036c0 7.288 1.762 10.235 5.399 9.03 1.156-.382 3.226-.668 4.601-.635 2.477.061 2.497-.008 2.171-7.381-.387-8.749-1.939-9.925-2.371-1.797-.316 5.944-2.01 8.255-5.164 7.045-1.264-.486-1.636-1.998-1.636-6.66C70 23.337 69.668 22 68.5 22c-1.178 0-1.5 1.381-1.5 6.429m33.667-5.762c-.367.366-.667 3.693-.667 7.393 0 5.056.372 6.869 1.5 7.302 1.256.482 1.5-.721 1.5-7.393 0-7.321-.56-9.075-2.333-7.302m11.406 1.968c-5.129 6.519.837 15.639 8.345 12.758 2.52-.967 1.83-2.493-.825-1.827-3.13.786-6.593-1.106-6.593-3.601 0-1.697.697-1.965 5.108-1.965 5.067 0 5.103-.022 4.446-2.75-1.349-5.593-7.025-7.009-10.481-2.615m18.677-1.575c-2.882 1.712-2.188 5.662 1.312 7.472 3.788 1.959 3.64 4.968-.245 4.968-1.452 0-2.938.296-3.303.659-1.077 1.068 3.289 2.037 5.736 1.274 4.872-1.521 5.024-5.749.306-8.532-3.979-2.348-3.897-5.391.125-4.622 1.487.285 2.258.034 2.03-.66-.5-1.52-3.82-1.832-5.961-.559M177 27.777c0 3.611.584 6.612 1.557 8 1.613 2.304 4.863 2.97 5.945 1.219.341-.552 1.718-.728 3.059-.391 2.425.608 2.439.569 2.439-6.997 0-6.096-.298-7.608-1.5-7.608-1.141 0-1.504 1.257-1.515 5.25-.019 6.327-.941 8.034-4.098 7.587-2.187-.309-2.412-.861-2.685-6.587-.222-4.661-.667-6.25-1.75-6.25-1.102 0-1.452 1.393-1.452 5.777m-62.964-2.321C112.433 27.388 113.553 29 116.5 29c1.31 0 2.672-.47 3.027-1.044.781-1.263-1.28-3.956-3.027-3.956-.69 0-1.799.655-2.464 1.456m87.535.115C198.696 28.447 200.455 36 204 36c3.828 0 5.543-9.104 2.066-10.965-2.502-1.339-2.635-1.323-4.495.536M119 98c-4.115 4.115-.711 12 5.18 12 2.662 0 6.82-4.431 6.82-7.266 0-5.759-7.871-8.863-12-4.734m42.321 18.189c-1.198.579-2.727 2.377-3.398 3.996-1.056 2.55-.952 3.301.778 5.629 2.473 3.327 7.611 4.119 10.393 1.601 2.875-2.602 2.509-7.795-.729-10.342-2.926-2.302-3.867-2.42-7.044-.884m-33.01 9.443c-.345.898-.102 2.473.54 3.5 1.439 2.305.345 2.395-4.505.368-4.641-1.939-5.346-1.891-5.346.364 0 2.08 6.675 5.136 11.216 5.136 1.749 0 2.86.663 3.269 1.952.725 2.285 8.423 8.223 9.666 7.455 1.64-1.014.814-2.726-2.901-6.009-3.273-2.893-3.479-3.32-1.622-3.356 2.612-.051 4.654-2.341 4.198-4.709-.891-4.624-13.035-8.557-14.515-4.701" fill="#1976D2" fill-rule="evenodd"/><path fill-opacity=".361" d="M0 128v128h29.527l-.013-18.75c-.016-21.433.907-26.257 7.662-40.024 4.79-9.766 14.767-21.027 24.986-28.204l6.73-4.726-2.805-2.074c-7.167-5.298-22.136-26.533-32.168-45.634-5.8-11.043-6.129-12.037-5.702-17.196.928-11.185 7.355-14.161 18.47-8.55 15.248 7.697 26.208 22.019 30.776 40.216 1.799 7.168 3.61 12.203 4.182 11.63.207-.207-.317-2.342-1.165-4.745-2.754-7.807-2.985-17.51-.636-26.798C83.527 96.58 91.834 85.247 104.871 77l7.114-4.5-.539-4c-1.426-10.598 11.054-18.66 21.883-14.136 3.744 1.565 8.671 6.969 8.671 9.512 0 1.401 1.607 1.956 8.586 2.965 19.622 2.837 35.805 12.704 45.931 28.005 1.981 2.994 3.275 4.058 4.395 3.614 6.604-2.62 15.13-.576 19.56 4.689 3.015 3.583 3.391 9.581.868 13.852-2.143 3.628-8.178 6.999-12.531 6.999h-3.419l-1.238 7.368c-2.878 17.129-15.217 33.103-32.037 41.477-4.612 2.296-10.125 4.453-12.25 4.793-2.126.34-3.865.83-3.865 1.089s4.779 5.489 10.621 11.622c33.758 35.444 44.519 57.578 30.993 63.747l-4.114 1.876 31.5-.236 31.5-.236.254-127.75L257.008 0H0v128m.485.5c0 70.4.119 99.053.265 63.672.146-35.38.146-92.98 0-128C.604 29.153.485 58.1.485 128.5M52.212 16.153c-4.005 1.125-7.205 5.943-7.205 10.847 0 4.423 3.202 9.763 6.324 10.547 3.979.998 9.169.125 9.169-1.543 0-1.111-.934-1.416-3.626-1.185-2.952.255-4.019-.188-5.75-2.388C46.563 26.632 49.584 19 56.441 19c2.922 0 5.569-1.456 4.409-2.426-1.174-.982-5.832-1.209-8.638-.421m48.117.431c-.716 1.867 1.061 3.911 2.584 2.97 1.588-.981 1.328-3.248-.451-3.93-.891-.342-1.788.062-2.133.96M197 26.329v11.33l5.228.119c5.955.136 8.303-1.364 9.309-5.948 1.344-6.119-3.019-10.983-8.553-9.536-1.729.452-1.984.016-1.984-3.388 0-3.239-.341-3.906-2-3.906-1.882 0-2 .667-2 11.329M154 27c0 10.333.121 11 2 11 1.733 0 2-.667 2-5v-5h8v5c0 4.333.267 5 2 5 1.879 0 2-.667 2-11s-.121-11-2-11c-1.704 0-2 .667-2 4.5V25h-8v-4.5c0-3.833-.296-4.5-2-4.5-1.879 0-2 .667-2 11m-65.75-8.338c-.687.278-1.25 1.142-1.25 1.921 0 .78-.45 1.417-1 1.417s-1 .675-1 1.5.45 1.5 1 1.5 1 2.385 1 5.3c0 5.786 1.168 7.7 4.7 7.7 2.57 0 3.155-2.458.8-3.362-1.02-.391-1.5-1.988-1.5-4.99 0-3.574.381-4.514 2-4.938 1.1-.287 2-1.015 2-1.616 0-.602-.9-1.094-2-1.094-1.333 0-2-.667-2-2 0-2.021-.479-2.254-2.75-1.338M66.015 27.25c.008 2.888.584 6.375 1.279 7.75 1.114 2.202 1.948 2.515 6.985 2.622l5.721.122v-7.872C80 22.731 79.819 22 78.048 22c-1.696 0-1.992.819-2.25 6.24-.247 5.179-.618 6.301-2.178 6.598-2.634.502-3.587-1.505-3.605-7.588C70.002 22.672 69.744 22 68 22c-1.748 0-1.998.662-1.985 5.25M100 30c0 7.333.167 8 2 8s2-.667 2-8-.167-8-2-8-2 .667-2 8m11.328-5.378c-2.407 3.673-2.068 9.36.69 11.594 2.793 2.261 9.982 2.466 9.982.284 0-1.03-1.033-1.5-3.3-1.5-3.127 0-5.7-1.445-5.7-3.2 0-.44 2.25-.8 5-.8 4.828 0 5-.098 5-2.845 0-6.072-8.352-8.6-11.672-3.533m18.243-1.051c-2.38 2.38-1.918 4.063 1.919 6.989 3.965 3.025 3.764 4.44-.632 4.44-4.105 0-3.224 2.4 1.034 2.818 4.064.4 6.108-1.245 6.108-4.915 0-2.157-.731-3.229-3-4.403-3.713-1.92-3.833-3.269-.327-3.684 1.47-.174 2.857-.878 3.083-1.566.611-1.86-6.274-1.59-8.185.321M177 28.8c0 3.956.502 7.302 1.2 8 1.547 1.547 6.053 1.547 7.6 0 .933-.933 1.2-.933 1.2 0 0 .66.675 1.2 1.5 1.2 1.208 0 1.5-1.556 1.5-8 0-7.333-.167-8-2-8-1.779 0-2 .667-2 6.031 0 4.675-.37 6.174-1.645 6.663-2.489.955-4.355-2.423-4.355-7.885 0-3.608-.375-4.809-1.5-4.809-1.186 0-1.5 1.422-1.5 6.8m-62.471-3.186C112.409 27.734 112.573 28 116 28c1.898 0 3-.512 3-1.393 0-2.11-2.744-2.72-4.471-.993m86.869.791c-.296.772-.395 2.91-.218 4.75.247 2.582.831 3.418 2.56 3.663 3.086.439 5.062-3.763 3.442-7.318-1.244-2.731-4.891-3.422-5.784-1.095m-81.943 72.05c-2.763 2.762-2.948 3.739-1.305 6.861 1.503 2.856 2.79 3.65 5.945 3.669 5.583.033 8.277-7.646 3.919-11.175-3.048-2.468-5.643-2.272-8.559.645m40.2 19.374c-5.755 6.359 3.301 15.105 9.171 8.857 1.196-1.273 2.174-3.298 2.174-4.5 0-5.198-7.854-8.215-11.345-4.357m-30.602 7.607c-.868 1.046-.901 1.98-.122 3.434 1.624 3.036 1.394 3.156-3.057 1.586-4.885-1.724-6.874-1.841-6.874-.405 0 1.497 6.902 4.267 10.746 4.311 2.21.026 3.426.605 3.81 1.815.672 2.117 7.361 7.823 9.172 7.823 2.305 0 1.321-2.464-1.798-4.5-1.685-1.1-3.5-2.787-4.032-3.75-.828-1.497-.525-1.75 2.098-1.75 5.709 0 4.824-5.434-1.363-8.37-4.238-2.011-7.02-2.074-8.58-.194m28.064 108.314c-.133 8.423-.711 15.253-1.691 20l-.464 2.25 15.769-.086c9.943-.054 14.758-.39 13.033-.91-7.995-2.407-15.436-9.957-21.721-22.039-2.279-4.381-4.289-7.965-4.466-7.965-.177 0-.384 3.938-.46 8.75" fill="#1976D2" fill-rule="evenodd"/><path fill-opacity=".271" d="M121 97.294c-2.028 1.026-2.5 2.007-2.5 5.197 0 3.25.477 4.199 2.75 5.471 2.473 1.383 3.027 1.383 5.493.004 4.483-2.508 4.33-8.7-.266-10.795-3.07-1.398-2.441-1.413-5.477.123M160 118c-2.791 2.791-2.532 6.437.635 8.927 3.231 2.542 4.508 2.587 7.379.263 4.335-3.511 1.504-11.19-4.125-11.19-1.039 0-2.789.9-3.889 2m-31 8.8c0 .99.532 2.332 1.183 2.983 2.119 2.119.027 2.477-4.823.824-2.697-.919-5.125-1.242-5.62-.747-1.137 1.137 6.385 4.14 10.374 4.14 2.232 0 3.216.547 3.596 1.999.63 2.409 8.185 8.184 9.58 7.322.543-.336-.875-2.158-3.151-4.049-4.862-4.038-5.113-5.027-1.389-5.456 3.852-.443 4.2-3.924.67-6.701-3.517-2.766-10.42-2.975-10.42-.315" fill="#1976D2" fill-rule="evenodd"/></svg>